<svg width="24.000000" height="24.000000" viewBox="0 0 24 24" fill="none" xmlns="http://www.w3.org/2000/svg" xmlns:xlink="http://www.w3.org/1999/xlink">
	<desc>
			Created with Pixso.
	</desc>
	<defs>
		<clipPath id="clip14_5659">
			<rect id="icons" width="24.000000" height="24.000000" fill="white" fill-opacity="0"/>
		</clipPath>
	</defs>
	<rect id="icons" width="24.000000" height="24.000000" fill="#FFFFFF" fill-opacity="0"/>
	<g clip-path="url(#clip14_5659)">
		<path id="Vector" d="M4.14551 17.5043C3.72949 18.2378 4.25488 19.1464 5.0979 19.1464L18.9021 19.1464C19.7451 19.1464 20.2705 18.2378 19.8545 17.5043L12.947 5.55005C12.531 4.81665 11.469 4.81665 11.053 5.55005L4.14551 17.5043Z" stroke="#C52542" stroke-opacity="1.000000" stroke-width="1.200000"/>
		<path id="Vector" d="M11.9839 8.73584L11.9839 14.7787" stroke="#C52542" stroke-opacity="1.000000" stroke-width="1.200000"/>
		<path id="Vector" d="M12.6736 16.4973C12.6736 16.8782 12.3647 17.187 11.9839 17.187C11.603 17.187 11.2942 16.8782 11.2942 16.4973C11.2942 16.1163 11.603 15.8076 11.9839 15.8076C12.3647 15.8076 12.6736 16.1163 12.6736 16.4973Z" fill="#C52542" fill-opacity="1.000000" fill-rule="evenodd"/>
	</g>
</svg>
