<svg width="32.000000" height="32.000000" viewBox="0 0 32 32" fill="none" xmlns="http://www.w3.org/2000/svg" xmlns:xlink="http://www.w3.org/1999/xlink">
	<desc>
			Created with Pixso.
	</desc>
	<defs>
		<clipPath id="clip1417_8667">
			<rect id="icons" rx="16.000000" width="32.000000" height="32.000000" fill="white" fill-opacity="0"/>
		</clipPath>
	</defs>
	<g clip-path="url(#clip1417_8667)">
		<path id="icon-photo" d="M22.4927 13.2529C22.1245 13.2529 21.8259 12.9541 21.8259 12.5859C21.8259 12.2178 22.1245 11.9199 22.4927 11.9199C22.8608 11.9199 23.1594 12.2178 23.1594 12.5859C23.1594 12.9541 22.8608 13.2529 22.4927 13.2529ZM20.4126 9.38574L19.2527 7.59961C19.0261 7.14648 18.5593 6.86621 18.0662 6.86621L13.9194 6.86621C13.4126 6.86621 12.9595 7.14648 12.7327 7.59961L11.5728 9.38574L7.69263 9.38574C6.95947 9.38574 6.35938 9.98633 6.35938 10.7197L6.35938 21.9727C6.35938 22.7061 6.95947 23.3066 7.69263 23.3066L24.2927 23.3066C25.0261 23.3066 25.626 22.7061 25.626 21.9727L25.626 10.7197C25.626 9.98633 25.0261 9.38574 24.2927 9.38574L20.4126 9.38574ZM15.9993 20.373C13.783 20.373 11.9861 18.5762 11.9861 16.3594C11.9861 14.1426 13.783 12.3467 15.9993 12.3467C18.2158 12.3467 20.0127 14.1426 20.0127 16.3594C20.0127 18.5762 18.2158 20.373 15.9993 20.373Z" stroke="#333333" stroke-opacity="1.000000" stroke-width="1.200000"/>
	</g>
</svg>
